# xmcd
#
# Track frame offsets: 
#        150
#        12106
#        32579
#        42961
#        56230
#        69679
#        81157
#        92186
#        102851
#        113117
#        128541
#        140378
#        153502
#        166831
#        179292
#        191285
#        202023
#        213453
#        223619
#        235567
#        246350
#        259088
#        267717
#        278470
#        287908
#
# Disc length: 3991 seconds
#
# Revision: 0
# Processed by: cddbd v1.5.2PL0 Copyright (c) Steve Scherf et al.
# Submitted via: ExactAudioCopyFreeDBPlugin 1.0
#
DISCID=6b0f9519
DTITLE=Various Artist - 50 Country Number Ones
DYEAR=2016
DGENRE=Country
TTITLE0=Johnny Cash - I walk the line
TTITLE1=Marty Robbins - El Paso
TTITLE2=Leroy van Dyke - Walk On By
TTITLE3=Claude King - Wolverton Mountain
TTITLE4=Jimmy Dean - Big Bad John
TTITLE5=George Jones - She thinks I still care
TTITLE6=Carl Smith - Hey Joe
TTITLE7=Hank Locklin - Please help me, I'm falling
TTITLE8=Johnnie and Jack - I get so lonely
TTITLE9=Bill Anderson - Mama sang a song
TTITLE10=Jim Reeves - Mexican Joe
TTITLE11=Lefty Frizzell - If you've got the money, I've got the time
TTITLE12=Patsy Cline - She's got you
TTITLE13=Johnny Horton - North to Alaska
TTITLE14=Hank Snow - I'm moving on
TTITLE15=Faron Young - Hello Walls
TTITLE16=Kitty Wells - Heartbreak USA
TTITLE17=Hank Thompson - Wake up, Irene
TTITLE18=Hank Williams - Your Cheatin' heart
TTITLE19=Sheb Wooley - That's my pa
TTITLE20=Bobby Helms - Fraulein
TTITLE21=Don Gibson - Blue blue day
TTITLE22=The Carlisles - No help wanted
TTITLE23=Webb Pierce - In the jailhouse now
TTITLE24=Ray Price - My shoes keep walking back to you
EXTD=
EXTT0=
EXTT1=
EXTT2=
EXTT3=
EXTT4=
EXTT5=
EXTT6=
EXTT7=
EXTT8=
EXTT9=
EXTT10=
EXTT11=
EXTT12=
EXTT13=
EXTT14=
EXTT15=
EXTT16=
EXTT17=
EXTT18=
EXTT19=
EXTT20=
EXTT21=
EXTT22=
EXTT23=
EXTT24=
PLAYORDER=
